# xmcd
#
# Track frame offsets:
#	183
#	13748
#	28368
#	46083
#	65583
#	83470
#	97533
#	113648
#	123910
#	138235
#	151008
#	164378
#	179470
#	197033
#
# Disc length: 2828
#
# Revision: 3
# Processed by: cddbd v1.5.1PL0 Copyright (c) Steve Scherf et al.
# Submitted via: FreeRIP 2.30 
# Normalized: r0:TDELIM( - ),TSWAP
#
DISCID=a50b0a0e
DTITLE=Southern Nights - CD 1
DYEAR=1991
DGENRE=Country
TTITLE0=Glen Campbell - Southern nights
TTITLE1=The Bellamy Brothers - Let your love flow
TTITLE2=Linda Ronstadt - Blue Bayou
TTITLE3=Kenny Rogers - Coward of the country
TTITLE4=Lee Greenwood - The wind beneath my wings
TTITLE5=Dolly Parton - I will always love you
TTITLE6=Alabama - Feels so right
TTITLE7=Kris Kristofferson - Help me make it through the night
TTITLE8=Eddie Rabbitt - I love a rainy night
TTITLE9=Anne Murray - I just fall in love again
TTITLE10=Ronie Milsap - A legend in my time
TTITLE11=George Strait - All my ex's live in Texas
TTITLE12=Emmylou Harris - Together again
TTITLE13=B.J. Thomas - Another sombody done somebody wrong song
EXTD=
EXTT0=
EXTT1=
EXTT2=
EXTT3=
EXTT4=
EXTT5=
EXTT6=
EXTT7=
EXTT8=
EXTT9=
EXTT10=
EXTT11=
EXTT12=
EXTT13=
PLAYORDER=
